<svg width="64" height="64" viewBox="0 0 64 64" fill="none" xmlns="http://www.w3.org/2000/svg">
<path d="M62.3643 1.571C61.7393 0.946007 60.8297 0.730327 59.9906 1.00803L15.1169 15.8606C13.8943 16.2652 14.5201 18.1564 15.7429 17.7517L60.6165 2.89921C60.9289 2.86654 61.0687 3.00638 61.0361 3.31875L42.0002 60.8315C41.852 61.2793 41.2277 61.3167 41.0269 60.8898L33.3401 44.5364L36.9868 38.6502C37.6651 37.5555 35.9716 36.5064 35.2933 37.6012L31.684 43.4272L22.6795 42.6646L47.588 17.756L38.0564 33.1414C37.3781 34.2361 39.0716 35.2853 39.7498 34.1904L53.808 11.4985C54.35 10.6253 53.3073 9.58554 52.4352 10.1282L19.4508 30.6468L3.03902 22.9101C2.61257 22.7091 2.65029 22.0853 3.09785 21.937L10.7555 19.4025C11.9782 18.9979 11.3522 17.1067 10.1296 17.5114L2.47193 20.0459C0.358034 20.7455 0.175424 23.7626 2.18958 24.7121L18.5699 32.4339L19.4663 43.5561C19.505 44.0377 19.8962 44.4251 20.3751 44.4686L31.5519 45.4152L39.224 61.7372C40.1667 63.7426 43.1923 63.57 43.8914 61.4574L62.9273 3.9448C63.2051 3.10559 62.9893 2.19612 62.3643 1.571ZM21.2789 41.2478L20.6429 33.3557L20.5582 32.3041L46.1303 16.3966L21.2789 41.2478Z" fill="#685ED6"/>
</svg>
