<svg width="58" height="67" viewBox="0 0 58 67" fill="none" xmlns="http://www.w3.org/2000/svg">
<path d="M22.6251 15.2193H16.0195L29.0001 0.519592L41.9806 15.2182H35.3751V39.3125H33.2501V13.0943H37.2695L29.0001 3.73047L20.7306 13.0943H24.7501V39.3125H22.6251V15.2193ZM10.9376 41.4375H47.0626V66.9375H10.9376V41.4375ZM44.9376 43.5625H33.2501V64.8125H44.9376V43.5625ZM19.4376 45.1648C19.4376 45.4527 19.6724 45.6875 19.9603 45.6875H24.2273C24.5153 45.6875 24.7501 45.4527 24.7501 45.1648V43.5625H19.4376V45.1648ZM13.0626 64.8125H31.1251V43.5625H26.8751V45.1648C26.8751 46.6247 25.6872 47.8125 24.2273 47.8125H19.9603C18.5005 47.8125 17.3126 46.6247 17.3126 45.1648V43.5625H13.0626V64.8125ZM4.56258 66.9375H6.68758V31.875H4.6104L9.87508 25.1058L15.1398 31.875H13.0626V39.3125H15.1876V34H19.4854L9.87508 21.6442L0.264771 34H4.56258V66.9375ZM42.8126 28.6875V39.3125H44.9376V26.5625H42.8604L48.1251 19.7933L53.3898 26.5625H51.3126V66.9375H53.4376V28.6875H57.7354L48.1251 16.3317L38.5148 28.6875H42.8126Z" fill="#685ED6"/>
</svg>
